<svg xmlns="http://www.w3.org/2000/svg" width="268.996" height="72" viewBox="0 0 268.996 72">
  <defs>
    <style>
      .cls-1 {
        fill: #fff;
        fill-rule: evenodd;
      }
    </style>
  </defs>
  <path id="cloud_3" class="cls-1" d="M1165.17,263.5c-12.5-.666-40.67,2-44.67,2s-11.5-.167-12.67-1.833,3-7.835,5.67-7.668,5.33,2.5,5.33,2.5,0.67-14.5,7.84-14.5,8.33,4.834,8.33,4.834,8.83-20.5,25.33-20.167,15,20.834,14.5,23.167c2.34-1,9.17-4.5,13.5-4.5s13,1.5,13,13.334S1177.67,264.165,1165.17,263.5Zm-51.5,33.166c-3.34,3.332-35,4-50.67,4s-81.667-4.332-99.335-5-31.332-3.332-31.332-7C932.333,281,946,269.333,956,269.333s20.666,4.667,23.332,7.334,3-31.667,20-31.667S1022,265,1022,265s2.33-36,33-36,40.67,54,40.67,54a18.213,18.213,0,0,1,10.66-4C1112.34,279,1117,293.333,1113.67,296.665Z" transform="translate(-932.344 -228.656)"/>
</svg>
