<svg xmlns="http://www.w3.org/2000/svg" width="23" height="23" viewBox="0 0 23 23">
  <defs>
    <style>
      .cls-1 {
        fill: #bcbcbc;
        fill-rule: evenodd;
      }
    </style>
  </defs>
  <path class="cls-1" d="M843,330H824a2,2,0,0,1-2-2V311a2,2,0,0,1,2-2h3v-1.5a0.5,0.5,0,0,1,1,0V309h11v-1.5a0.5,0.5,0,0,1,1,0V309h3a2,2,0,0,1,2,2v17A2,2,0,0,1,843,330Zm1-19a1,1,0,0,0-1-1h-3v1.5a0.5,0.5,0,0,1-1,0V310H828v1.5a0.5,0.5,0,0,1-1,0V310h-3a1,1,0,0,0-1,1v4h21v-4Zm0,5H823v12a1,1,0,0,0,1,1h19a1,1,0,0,0,1-1V316Zm-4,10h-1a1,1,0,0,1-1-1v-1a1,1,0,0,1,1-1h1a1,1,0,0,1,1,1v1A1,1,0,0,1,840,326Zm0-4h-1a1,1,0,0,1-1-1v-1a1,1,0,0,1,1-1h1a1,1,0,0,1,1,1v1A1,1,0,0,1,840,322Zm-4,4h-1a1,1,0,0,1-1-1v-1a1,1,0,0,1,1-1h1a1,1,0,0,1,1,1v1A1,1,0,0,1,836,326Zm0-4h-1a1,1,0,0,1-1-1v-1a1,1,0,0,1,1-1h1a1,1,0,0,1,1,1v1A1,1,0,0,1,836,322Zm-4,4h-1a1,1,0,0,1-1-1v-1a1,1,0,0,1,1-1h1a1,1,0,0,1,1,1v1A1,1,0,0,1,832,326Zm0-4h-1a1,1,0,0,1-1-1v-1a1,1,0,0,1,1-1h1a1,1,0,0,1,1,1v1A1,1,0,0,1,832,322Zm-4,4h-1a1,1,0,0,1-1-1v-1a1,1,0,0,1,1-1h1a1,1,0,0,1,1,1v1A1,1,0,0,1,828,326Zm0-4h-1a1,1,0,0,1-1-1v-1a1,1,0,0,1,1-1h1a1,1,0,0,1,1,1v1A1,1,0,0,1,828,322Z" transform="translate(-822 -307)"/>
</svg>
