<svg xmlns="http://www.w3.org/2000/svg" width="15" height="19" viewBox="0 0 15 19">
  <defs>
    <style>
      .cls-1 {
        fill: #db1b3c;
        fill-rule: evenodd;
      }
    </style>
  </defs>
  <path id="Forma_1" data-name="Forma 1" class="cls-1" d="M496.888,766.652v12.063A1.27,1.27,0,0,1,495.594,780H485.406a1.261,1.261,0,0,1-1.283-1.285V766.652H483v-2.12a1.278,1.278,0,0,1,1.294-1.3h2.544v-1.648a0.58,0.58,0,0,1,.588-0.589h6.041a0.09,0.09,0,0,1,.043.021,0.092,0.092,0,0,1,.064-0.021,0.589,0.589,0,0,1,.6.589v1.648h2.534a1.279,1.279,0,0,1,1.294,1.3v2.12h-1.112ZM485.3,778.715a0.092,0.092,0,0,0,.107.108h10.188a0.092,0.092,0,0,0,.107-0.108V766.652H485.3v12.063Zm7.687-16.538h-4.972v1.06h4.972v-1.06Zm3.827,2.355a0.1,0.1,0,0,0-.107-0.117H484.294a0.1,0.1,0,0,0-.107.117v0.942h12.626v-0.942Zm-4.159,3.5h1.187v9.74h-1.187v-9.74Zm-2.737,0H491.1v9.74h-1.187v-9.74Zm-2.737,0h1.187v9.74H487.18v-9.74Z" transform="translate(-483 -761)"/>
</svg>
