<svg xmlns="http://www.w3.org/2000/svg" width="28" height="35" viewBox="0 0 48 59">
  <defs>
    <style>
      .cls-1 {
        fill: #fff;
        fill-rule: evenodd;
      }
    </style>
  </defs>
  <path class="cls-1" d="M6.426,31.29C4.5,33.2,3.378,35.447,3.842,38.218A5.9,5.9,0,0,0,8.678,43.1a8.419,8.419,0,0,0,7.42-2.9,10.985,10.985,0,0,0,2.451-9.7c-0.4-2.111-3.578-1.188-3.18.858,0.662,3.5-1.325,8.577-5.631,8.511a2.693,2.693,0,0,1-2.716-2.9c0-1.847,1.325-2.969,2.518-4.157s2.319-2.507,2.319-4.288C11.792,26.21,10,24.1,8.678,22.251c-3.313-4.618,2.783-9.962,7.486-9.7a8.038,8.038,0,0,1,6.89,4.75,8.139,8.139,0,0,1-2.319,9.435c-1.59,1.386.729,3.761,2.319,2.309,5.9-5.212,4.9-15.043-2.319-18.605A11.4,11.4,0,0,0,4.571,18.293a6.781,6.781,0,0,0,.4,4.42A42.559,42.559,0,0,0,7.42,26.276c0.53,0.858,1.391,1.847.928,2.9A6.507,6.507,0,0,1,6.426,31.29Zm25.9,0.4a19.6,19.6,0,0,0,3.379-8.445A20.384,20.384,0,0,0,17.954.149,19.379,19.379,0,0,0,.463,6.945c-1.325,1.649.994,3.959,2.319,2.309,6.824-8.313,20.273-7.719,26.567.99A17.224,17.224,0,0,1,32,24.89a16.8,16.8,0,0,1-4.108,7.125A59.26,59.26,0,0,0,23.254,36.5c-3.048,3.761-3.71,8.577-4.306,13.261A7.947,7.947,0,0,1,3.312,47.784c-0.066-2.111-3.379-2.111-3.313,0A11.359,11.359,0,0,0,11.262,59a11.385,11.385,0,0,0,10.8-8.049,1.219,1.219,0,0,0,.133-0.462V50.423a16.88,16.88,0,0,0,.4-2.639V47.718c0.53-3.695,1.457-7.257,4.108-10.028C28.554,35.579,30.674,33.995,32.33,31.686Zm8.348,13.261,6.36-6.334A1.637,1.637,0,0,0,44.72,36.3l-6.36,6.334-5.9-5.872c-1.524-1.517-3.843.858-2.319,2.309l5.9,5.872-6.36,6.334A1.637,1.637,0,0,0,32,53.59l6.36-6.334,6.824,6.8c1.524,1.517,3.843-.858,2.319-2.309C45.25,49.434,43,47.19,40.678,44.947Z"/>
</svg>
