<svg xmlns="http://www.w3.org/2000/svg" width="23" height="14.531" viewBox="0 0 23 14.531">
  <defs>
    <style>
      .cls-1 {
        fill-rule: evenodd;
      }
    </style>
  </defs>
  <path class="cls-1" d="M989.713,327.128l-0.934,1.114a15.567,15.567,0,0,1-1.149,1.1l-1.152.892a13.688,13.688,0,0,1-1.317.817l-1.323.622a11.649,11.649,0,0,1-1.463.483l-1.438.284a9.533,9.533,0,0,1-2.875,0l-1.437-.285a11.7,11.7,0,0,1-1.463-.482l-1.324-.624a13.1,13.1,0,0,1-1.316-.817l-1.152-.89a15.185,15.185,0,0,1-1.149-1.1l-0.934-1.113A17.946,17.946,0,0,1,968,325.273c2.629-4.409,6.794-7.273,11.5-7.273s8.871,2.864,11.5,7.273A17.946,17.946,0,0,1,989.713,327.128ZM979.5,319.455c-3.788,0-7.317,2.107-9.795,5.818,2.478,3.71,6.007,5.818,9.795,5.818s7.317-2.108,9.794-5.818C986.817,321.562,983.287,319.455,979.5,319.455Zm0,9.545a3.5,3.5,0,1,1,3.5-3.5A3.5,3.5,0,0,1,979.5,329Zm1.445-5.881a1.5,1.5,0,0,0-2.049.549c-0.414.718,1.265,0.153,1.982,0.567s0.2,1.651.616,0.933A1.5,1.5,0,0,0,980.945,323.119Z" transform="translate(-968 -318)"/>
</svg>
