<svg xmlns="http://www.w3.org/2000/svg" width="42" height="34" viewBox="0 0 69 57">
  <defs>
    <style>
      .cls-1 {
        fill: #fff;
        stroke: #fff;
        stroke-width: 0.5px;
        fill-rule: evenodd;
      }
    </style>
  </defs>
  <path id="Forma_1" data-name="Forma 1" class="cls-1" d="M13.723,41.9a1.121,1.121,0,0,0,1.585-.181,1.144,1.144,0,0,0-.179-1.6,31.065,31.065,0,0,1-2.6-2.343L4.189,29.368l8.6-8.677A30.254,30.254,0,0,1,44.179,13.26,1.137,1.137,0,0,0,44.9,11.1a32.482,32.482,0,0,0-33.7,7.979L1,29.368l9.936,10.023A33.413,33.413,0,0,0,13.723,41.9ZM57.642,19.083a33.18,33.18,0,0,0-4.954-4.113,1.123,1.123,0,0,0-1.565.31,1.145,1.145,0,0,0,.308,1.579,30.872,30.872,0,0,1,4.616,3.831l8.341,8.415-8.6,8.677a30.545,30.545,0,0,1-31.967,7.229,1.125,1.125,0,0,0-1.442.687,1.141,1.141,0,0,0,.681,1.455A32.4,32.4,0,0,0,34.08,49.079a32.845,32.845,0,0,0,23.3-9.688l10.2-10.285ZM35.432,42.341a12.853,12.853,0,0,1-6.844-1.968,1.124,1.124,0,0,0-1.553.365A1.142,1.142,0,0,0,27.4,42.3a15.081,15.081,0,0,0,8.035,2.311A15.383,15.383,0,0,0,48.088,20.729a1.122,1.122,0,0,0-1.564-.313,1.144,1.144,0,0,0-.31,1.577A13.1,13.1,0,0,1,35.432,42.341Zm0-26.159a12.863,12.863,0,0,1,6.6,1.82,1.122,1.122,0,0,0,1.545-.4,1.143,1.143,0,0,0-.4-1.558,15.109,15.109,0,0,0-7.752-2.137A15.384,15.384,0,0,0,21.759,36.019a1.121,1.121,0,0,0,1.509.521,1.142,1.142,0,0,0,.516-1.521A13.106,13.106,0,0,1,35.432,16.182ZM62.585,1.161a1.119,1.119,0,0,0-1.594,0L8.561,54.048a1.144,1.144,0,0,0,0,1.608,1.12,1.12,0,0,0,1.594,0L62.585,2.769A1.143,1.143,0,0,0,62.585,1.161Z"/>
</svg>
