<svg xmlns="http://www.w3.org/2000/svg" width="67.5" height="55.687" viewBox="0 0 67.5 55.687">
  <defs>
    <style>
      .cls-1 {
        fill: #fff;
        stroke: #fff;
        stroke-width: 0.5px;
        fill-rule: evenodd;
      }
    </style>
  </defs>
  <path id="Forma_1" data-name="Forma 1" class="cls-1" d="M160.156,737.656a1.121,1.121,0,0,1-1.595,0,1.143,1.143,0,0,1,0-1.608l52.429-52.887a1.12,1.12,0,0,1,1.595,0,1.143,1.143,0,0,1,0,1.608Zm13.111-19.117a1.113,1.113,0,0,1-.5.117,1.127,1.127,0,0,1-1.013-.638,15.384,15.384,0,0,1,13.672-22.111,15.112,15.112,0,0,1,7.752,2.137,1.144,1.144,0,0,1,.4,1.559,1.122,1.122,0,0,1-1.544.4,12.865,12.865,0,0,0-6.6-1.82,13.106,13.106,0,0,0-11.648,18.836A1.141,1.141,0,0,1,173.267,718.539Zm20.912-23.279a30.253,30.253,0,0,0-31.388,7.431l-8.6,8.677,8.341,8.415a30.9,30.9,0,0,0,2.6,2.342,1.144,1.144,0,0,1,.179,1.6,1.122,1.122,0,0,1-1.585.182,33.45,33.45,0,0,1-2.788-2.514L151,711.368l10.2-10.286a32.483,32.483,0,0,1,33.7-7.98,1.142,1.142,0,0,1,.711,1.441A1.131,1.131,0,0,1,194.179,695.26Zm2.345,7.156a1.122,1.122,0,0,1,1.564.313,15.383,15.383,0,0,1-12.656,23.887,15.083,15.083,0,0,1-8.035-2.311,1.142,1.142,0,0,1-.361-1.566,1.123,1.123,0,0,1,1.552-.366,12.848,12.848,0,0,0,6.844,1.968,13.1,13.1,0,0,0,10.782-20.347A1.145,1.145,0,0,1,196.524,702.416Zm-22.705,24.595a30.544,30.544,0,0,0,31.967-7.228l8.6-8.677-8.342-8.415a30.885,30.885,0,0,0-4.616-3.831,1.146,1.146,0,0,1-.308-1.579,1.123,1.123,0,0,1,1.565-.31,33.164,33.164,0,0,1,4.955,4.112l9.934,10.023-10.2,10.285a32.844,32.844,0,0,1-23.3,9.688,32.393,32.393,0,0,1-11.022-1.926,1.139,1.139,0,0,1-.681-1.454A1.124,1.124,0,0,1,173.819,727.011Z" transform="translate(-150.531 -682.563)"/>
</svg>
