<svg xmlns="http://www.w3.org/2000/svg" xmlns:xlink="http://www.w3.org/1999/xlink" preserveAspectRatio="xMidYMid" width="100" height="100" viewBox="0 0 100 100">
  <defs>
    <style>
      .cls-1 {
        fill: #f1f4f4;
        stroke: #e1e5e5;
        stroke-linejoin: round;
        stroke-width: 1px;
      }

      .cls-2 {
        fill: #bad1d7;
        fill-rule: evenodd;
      }
    </style>
  </defs>
  <g>
    <circle cx="50" cy="50" r="49.5" class="cls-1"/>
    <path d="M65.445,69.997 C60.971,71.289 56.126,72.026 51.040,72.026 C45.954,72.026 41.108,71.289 36.635,69.997 C35.642,68.443 35.070,66.712 35.070,64.877 C35.070,61.199 37.305,57.912 40.815,55.726 C43.421,57.694 47.038,58.918 51.040,58.918 C55.042,58.918 58.659,57.694 61.265,55.726 C64.775,57.912 67.010,61.199 67.010,64.877 C67.010,66.712 66.438,68.443 65.445,69.997 ZM51.035,53.042 C43.688,53.042 37.732,46.962 37.732,39.461 C37.732,31.960 43.688,25.880 51.035,25.880 C58.383,25.880 64.339,31.960 64.339,39.461 C64.339,46.962 58.383,53.042 51.035,53.042 Z" class="cls-2"/>
  </g>
</svg>
