<svg xmlns="http://www.w3.org/2000/svg" width="42.03" height="40.56" viewBox="0 0 42.03 40.56">
  <defs>
    <style>
      .cls-1 {
        fill: #1858c3;
        fill-rule: evenodd;
      }
    </style>
  </defs>
  <path id="Shape_1_copy_2" data-name="Shape 1 copy 2" class="cls-1" d="M1110.65,2431.68a0.055,0.055,0,0,0,0-.04l-0.75-6.06a7.768,7.768,0,0,0-7.51-6.62h-24.76a8.305,8.305,0,0,0-7.85,6.52l-1.15,6.11v0.05a0.277,0.277,0,0,0-.01.09v27.05a0.749,0.749,0,0,0,.75.75h40.54a0.755,0.755,0,0,0,.75-0.75v-27.05A0.109,0.109,0,0,0,1110.65,2431.68Zm-39.4-5.92a6.748,6.748,0,0,1,6.38-5.29h24.76a6.225,6.225,0,0,1,6.02,5.29l0.65,5.22h-38.79Zm9.38,32.26h-5.26v-5.63a2.63,2.63,0,0,1,5.26,0v5.63Zm11.26,0h-5.25v-5.63a2.625,2.625,0,1,1,5.25,0v5.63Zm11.26,0h-5.25v-5.63a2.625,2.625,0,1,1,5.25,0v5.63Zm6.01,0h-4.51v-5.63a4.125,4.125,0,1,0-8.25,0v5.63h-3.01v-5.63a4.13,4.13,0,0,0-8.26,0v5.63h-3v-5.63a4.13,4.13,0,0,0-8.26,0v5.63h-3.75V2444.5h39.04v13.52h0Zm0-15.02h-39.04v-10.52h39.04V2443h0Zm-34.54-9.01a3.009,3.009,0,0,0-3,3v3.76a0.755,0.755,0,0,0,.75.75h4.51a0.755,0.755,0,0,0,.75-0.75v-3.76A3.011,3.011,0,0,0,1074.62,2433.99Zm1.51,6.01h-3.01v-3.01a1.505,1.505,0,0,1,3.01,0V2440Zm6-6.01a3.009,3.009,0,0,0-3,3v3.76a0.749,0.749,0,0,0,.75.75h4.5a0.749,0.749,0,0,0,.75-0.75v-3.76A3,3,0,0,0,1082.13,2433.99Zm1.5,6.01h-3v-3.01a1.5,1.5,0,0,1,3,0V2440h0Zm6.01-6.01a3,3,0,0,0-3,3v3.76a0.749,0.749,0,0,0,.75.75h4.5a0.749,0.749,0,0,0,.75-0.75v-3.76A3.009,3.009,0,0,0,1089.64,2433.99Zm1.5,6.01h-3v-3.01a1.5,1.5,0,0,1,3,0V2440h0Zm6.01-6.01a3.011,3.011,0,0,0-3.01,3v3.76a0.755,0.755,0,0,0,.75.75h4.51a0.755,0.755,0,0,0,.75-0.75v-3.76A3.009,3.009,0,0,0,1097.15,2433.99Zm1.5,6.01h-3.01v-3.01a1.505,1.505,0,0,1,3.01,0V2440h0Zm6-6.01a3.009,3.009,0,0,0-3,3v3.76a0.755,0.755,0,0,0,.75.75h4.51a0.755,0.755,0,0,0,.75-0.75v-3.76A3.011,3.011,0,0,0,1104.65,2433.99Zm1.51,6.01h-3.01v-3.01a1.505,1.505,0,0,1,3.01,0V2440h0Z" transform="translate(-1068.63 -2418.97)"/>
</svg>
