<svg xmlns="http://www.w3.org/2000/svg" width="40.375" height="43.25" viewBox="0 0 40.375 43.25">
  <defs>
    <style>
      .cls-1 {
        fill: #1858c3;
        fill-rule: evenodd;
      }
    </style>
  </defs>
  <path id="Forma_1_copy_10" data-name="Forma 1 copy 10" class="cls-1" d="M706.975,2449.77l-0.308,2.91a0.838,0.838,0,0,0,.826.92h8.785a0.838,0.838,0,0,0,.826-0.92l-0.307-2.91h10.941a3.1,3.1,0,0,0,3.088-3.09v-21.43a3.1,3.1,0,0,0-3.088-3.1H695.369a3.1,3.1,0,0,0-3.089,3.1v21.43a3.1,3.1,0,0,0,3.089,3.09h11.606Zm8.379,2.17h-6.937l0.228-2.17h6.48Zm-19.985-28.12h32.369a1.429,1.429,0,0,1,1.427,1.43v18.87H693.942v-18.87A1.429,1.429,0,0,1,695.369,2423.82Zm-1.427,22.86v-0.9h35.223v0.9a1.429,1.429,0,0,1-1.427,1.43H695.369A1.429,1.429,0,0,1,693.942,2446.68Zm33.773,12.51a0.84,0.84,0,0,0,.027-0.82l-1.641-3.16a0.842,0.842,0,0,0-.737-0.45H697.742a0.844,0.844,0,0,0-.737.45l-1.641,3.16a0.843,0.843,0,0,0,.028.82,0.825,0.825,0,0,0,.71.4h30.9A0.828,0.828,0,0,0,727.715,2459.19Zm-30.245-1.27,0.777-1.49H724.86l0.777,1.49H697.47Zm31.695,3.17h-1.33a3.49,3.49,0,0,0-3.489,3.49,0.829,0.829,0,0,0,.831.83h6.646a0.829,0.829,0,0,0,.831-0.83A3.49,3.49,0,0,0,729.165,2461.09Zm-2.957,2.66a1.835,1.835,0,0,1,1.627-1h1.33a1.835,1.835,0,0,1,1.627,1h-4.584Z" transform="translate(-692.281 -2422.16)"/>
</svg>
