<svg xmlns="http://www.w3.org/2000/svg" width="39.719" height="39.69" viewBox="0 0 39.719 39.69">
  <defs>
    <style>
      .cls-1 {
        fill: #1858c3;
        fill-rule: evenodd;
      }
    </style>
  </defs>
  <path class="cls-1" d="M705.823,2128.77a19.855,19.855,0,1,0,19.857,19.85A19.88,19.88,0,0,0,705.823,2128.77Zm16.483,11.6c-1.914-.6-5.123-1.43-6.761-0.93a8.317,8.317,0,0,0-.954.33l1.795-3.59a2.542,2.542,0,0,1,2.021-1.02A18.629,18.629,0,0,1,722.306,2140.37Zm-17.9-10.13c0.468-.04.941-0.05,1.418-0.05a18.216,18.216,0,0,1,6.415,1.15,8.808,8.808,0,0,1-2.477,2.47c-0.756.38-2.573-.19-3.621-0.71a0.344,0.344,0,0,0-.093-0.04l-1.642-.55v-2.27Zm-5.6,35.44a18.448,18.448,0,0,1-11.267-19.46,6.626,6.626,0,0,0,3.818,4.48c1,0.42,1.8.74,2.443,0.99a6.1,6.1,0,0,1,1.924.93,3.725,3.725,0,0,1,.168,1.68c0,3.2.893,4.73,2.335,6.17C698.957,2161.2,699.008,2163.77,698.809,2165.68Zm2.675,0.87c-0.441-.11-0.876-0.23-1.305-0.37,0.164-1.31.517-5.25-.946-6.71-1.245-1.24-1.92-2.44-1.92-5.17,0-1.26,0-1.95-.467-2.55-0.437-.56-1.135-0.83-2.524-1.38-0.633-.25-1.42-0.56-2.4-0.98-4.354-1.87-3.186-7.46-3.133-7.7a0.7,0.7,0,0,0,.017-0.15,18.457,18.457,0,0,1,4.255-6.21v2.66a1.627,1.627,0,0,0,.9,1.45c1.224,0.65,3.444.28,5.164-.86a2.391,2.391,0,0,0,1.261-1.96,2.294,2.294,0,0,0-.627-1.49l0.955-.96a13.551,13.551,0,0,0,1.771,2.19,2.034,2.034,0,0,1,.776,1.51,2.793,2.793,0,0,1-1.377,1.65,10.177,10.177,0,0,0-2.962,3.68,10.275,10.275,0,0,1-1.4,2.09c-1.509,1.51-1.626,2.39-1.626,2.63a0.732,0.732,0,0,0,.207.5l2.837,2.83c1.3,1.3,7.631,4.56,9.605,5.55a1.808,1.808,0,0,1-.386.54,5.165,5.165,0,0,0-.826,1.45c-0.62,1.35-1.469,3.21-3.245,4.09C701.978,2163.94,701.458,2165.48,701.484,2166.55Zm17.84-5.38a18.4,18.4,0,0,1-13.5,5.89,18.161,18.161,0,0,1-2.873-.22c-0.006-.02-0.488-1.56,1.772-2.69,2.222-1.11,3.231-3.31,3.9-4.77a5.569,5.569,0,0,1,.54-1.03,2.9,2.9,0,0,0,.917-1.92,0.716,0.716,0,0,0-.392-0.64c-2.338-1.17-8.647-4.44-9.744-5.54l-2.534-2.53a5.61,5.61,0,0,1,1.116-1.43,10.918,10.918,0,0,0,1.631-2.39,8.934,8.934,0,0,1,2.516-3.2,3.829,3.829,0,0,0,2-2.69,3.32,3.32,0,0,0-1.184-2.65,11.708,11.708,0,0,1-2-2.65,0.712,0.712,0,0,0-.521-0.39,0.734,0.734,0,0,0-.615.2l-2.127,2.13a0.708,0.708,0,0,0,.108,1.09,1.459,1.459,0,0,1,.63.88,1.261,1.261,0,0,1-.63.78,4.422,4.422,0,0,1-3.708.79,0.2,0.2,0,0,1-.154-0.2v-3.55a0.72,0.72,0,0,0-.063-0.29,18.336,18.336,0,0,1,8.573-3.74v2.61a0.718,0.718,0,0,0,.485.68l2.082,0.69a9.252,9.252,0,0,0,3.537.96,2.96,2.96,0,0,0,1.3-.27,10.663,10.663,0,0,0,3.11-3.08,0.951,0.951,0,0,0,.056-0.11,18.966,18.966,0,0,1,3.479,2.11,3.2,3.2,0,0,0-1.923,1.54l-2.837,5.68a0.708,0.708,0,0,0,.228.9,0.682,0.682,0,0,0,.4.13,0.7,0.7,0,0,0,.516-0.23,6.4,6.4,0,0,1,2.528-1.23c1.333-.4,4.967.57,7.116,1.32a18.827,18.827,0,0,1,.6,1.88l-1.929-.96a0.706,0.706,0,0,0-.317-0.08,30.476,30.476,0,0,0-5.1.72c-3.395.68-3.072,2.79-2.837,4.32a9.1,9.1,0,0,1,.14,1.34c0,1.86,1.581,1.98,2.735,2.07a5.289,5.289,0,0,1,2.545.65C720.081,2152.84,719.852,2157.91,719.324,2161.17Zm0.367-10.3a6.349,6.349,0,0,0-3.224-.88c-1.425-.11-1.425-0.23-1.425-0.66a10.046,10.046,0,0,0-.155-1.55c-0.242-1.58-.353-2.3,1.713-2.71a32.664,32.664,0,0,1,4.669-.69l2.675,1.33a0.352,0.352,0,0,0,.092.04,18.414,18.414,0,0,1-3.007,13.29C721.31,2156.2,721.4,2152.01,719.691,2150.87Z" transform="translate(-685.969 -2128.78)"/>
</svg>
