<svg xmlns="http://www.w3.org/2000/svg" width="43.25" height="42.75" viewBox="0 0 43.25 42.75">
  <defs>
    <style>
      .cls-1 {
        fill: #1858c3;
        fill-rule: evenodd;
      }
    </style>
  </defs>
  <path id="Forma_1" data-name="Forma 1" class="cls-1" d="M317.411,2413.87a21.386,21.386,0,1,0,21.613,21.38A21.528,21.528,0,0,0,317.411,2413.87Zm0,41.34a19.956,19.956,0,1,1,20.173-19.96A20.087,20.087,0,0,1,317.411,2455.21Zm0.72-22.79v-7.23a0.721,0.721,0,0,0-1.441,0v7.23a2.862,2.862,0,0,0-2.059,2.04h-5.145a0.71,0.71,0,1,0,0,1.42h5.145A2.871,2.871,0,1,0,318.131,2432.42Zm-0.72,4.17a1.425,1.425,0,1,1,1.441-1.42A1.434,1.434,0,0,1,317.411,2436.59Zm0-15.67a0.719,0.719,0,0,0,.72-0.72v-0.71a0.721,0.721,0,0,0-1.441,0v0.71A0.719,0.719,0,0,0,317.411,2420.92Zm0,28.5a0.717,0.717,0,0,0-.721.71v0.72a0.721,0.721,0,0,0,1.441,0v-0.72A0.717,0.717,0,0,0,317.411,2449.42Zm15.85-14.96H332.54a0.71,0.71,0,1,0,0,1.42h0.721A0.71,0.71,0,1,0,333.261,2434.46Zm-30.98,0H301.56a0.71,0.71,0,1,0,0,1.42h0.721A0.71,0.71,0,1,0,302.281,2434.46Zm25.828-10.88-0.51.5a0.71,0.71,0,0,0,0,1.01,0.723,0.723,0,0,0,1.019,0l0.51-.5a0.71,0.71,0,0,0,0-1.01A0.723,0.723,0,0,0,328.109,2423.58ZM306.2,2445.25l-0.509.5a0.709,0.709,0,0,0,0,1.01,0.723,0.723,0,0,0,1.019,0l0.509-.5a0.709,0.709,0,0,0,0-1.01A0.723,0.723,0,0,0,306.2,2445.25Zm22.415,0a0.723,0.723,0,0,0-1.019,0,0.71,0.71,0,0,0,0,1.01l0.51,0.5a0.723,0.723,0,0,0,1.019,0,0.71,0.71,0,0,0,0-1.01Zm-21.9-21.67a0.723,0.723,0,0,0-1.019,0,0.709,0.709,0,0,0,0,1.01l0.509,0.5a0.723,0.723,0,0,0,1.019,0,0.709,0.709,0,0,0,0-1.01Z" transform="translate(-295.781 -2413.88)"/>
</svg>
