<svg xmlns="http://www.w3.org/2000/svg" width="41.32" height="41.31" viewBox="0 0 41.32 41.31">
  <defs>
    <style>
      .cls-1 {
        fill: #1858c3;
        fill-rule: evenodd;
      }
    </style>
  </defs>
  <path id="Forma_1" data-name="Forma 1" class="cls-1" d="M1103.47,2156.54l-4.06,5.83-2.86-2.35a0.725,0.725,0,1,0-.92,1.12l3.47,2.85a0.755,0.755,0,0,0,.46.16,0.375,0.375,0,0,0,.1-0.01,0.727,0.727,0,0,0,.49-0.3l4.51-6.48A0.723,0.723,0,1,0,1103.47,2156.54Zm3.49-2.03v-17.06a8.839,8.839,0,0,0-8.83-8.83h-21.5a8.839,8.839,0,0,0-8.83,8.83v21.5a8.845,8.845,0,0,0,8.83,8.83h17.07A9.419,9.419,0,0,0,1106.96,2154.51Zm-30.33,11.81a7.379,7.379,0,0,1-7.38-7.37v-21.5a7.388,7.388,0,0,1,7.38-7.38h21.5a7.388,7.388,0,0,1,7.38,7.38v15.65c-0.05-.04-0.11-0.08-0.16-0.12-0.16-.11-0.31-0.23-0.47-0.33-0.02-.01-0.03-0.02-0.05-0.03a10.257,10.257,0,0,0-1.17-.65c-0.06-.02-0.11-0.05-0.17-0.07-0.16-.07-0.32-0.13-0.48-0.2-0.11-.04-0.21-0.08-0.32-0.11-0.15-.05-0.3-0.1-0.45-0.14-0.13-.03-0.26-0.07-0.39-0.1l-0.42-.09c-0.17-.03-0.33-0.05-0.5-0.08-0.12-.01-0.23-0.03-0.34-0.04a8.508,8.508,0,0,0-.88-0.04,9.425,9.425,0,0,0-9.16,7.25h-3.17a0.717,0.717,0,0,0-.72.72,0.726,0.726,0,0,0,.72.73h2.94c-0.02.24-.04,0.48-0.04,0.72a8.491,8.491,0,0,0,.05.88c0.01,0.11.03,0.23,0.04,0.34,0.02,0.17.05,0.34,0.08,0.5,0.02,0.14.06,0.28,0.09,0.42s0.06,0.26.1,0.39c0.04,0.15.09,0.31,0.14,0.46,0.03,0.1.07,0.2,0.11,0.3,0.06,0.17.12,0.33,0.19,0.5,0.02,0.05.05,0.09,0.07,0.14a10.114,10.114,0,0,0,.67,1.21,0.053,0.053,0,0,0,.02.03c0.1,0.16.22,0.31,0.33,0.47,0.04,0.05.08,0.11,0.12,0.16h-15.66Zm23.08,2.18a7.938,7.938,0,0,1-5.32-2.05c-0.18-.16-0.34-0.32-0.5-0.49-0.04-.04-0.07-0.08-0.11-0.12-0.15-.17-0.29-0.34-0.43-0.52a1.463,1.463,0,0,1-.09-0.13,5.645,5.645,0,0,1-.38-0.57c-0.02-.04-0.05-0.08-0.07-0.12a6.25,6.25,0,0,1-.33-0.63,0.929,0.929,0,0,1-.05-0.1c-0.1-.22-0.19-0.45-0.27-0.68l-0.03-.09c-0.08-.24-0.14-0.48-0.2-0.72a0.292,0.292,0,0,0-.02-0.09q-0.075-.36-0.12-0.72c0-.04-0.01-0.07-0.01-0.11a7.585,7.585,0,0,1-.05-0.84,7.987,7.987,0,0,1,7.98-7.97,7.872,7.872,0,0,1,.84.04c0.04,0.01.07,0.01,0.1,0.02a5.848,5.848,0,0,1,.73.12,0.188,0.188,0,0,1,.08.02,6.054,6.054,0,0,1,.73.2c0.03,0.01.05,0.02,0.08,0.03,0.23,0.08.47,0.17,0.69,0.27,0.03,0.01.07,0.03,0.1,0.04,0.21,0.1.43,0.21,0.63,0.33,0.04,0.02.08,0.05,0.12,0.07,0.19,0.12.39,0.25,0.57,0.38l0.12,0.09c0.19,0.14.36,0.29,0.53,0.44a0.524,0.524,0,0,1,.11.1c0.17,0.16.34,0.33,0.5,0.51A7.958,7.958,0,0,1,1099.71,2168.5Zm-12.33-29.73h13.06a0.726,0.726,0,0,0,.72-0.73,0.717,0.717,0,0,0-.72-0.72h-13.06a0.717,0.717,0,0,0-.72.72A0.726,0.726,0,0,0,1087.38,2138.77Zm0,10.15h13.06a0.725,0.725,0,0,0,0-1.45h-13.06A0.725,0.725,0,0,0,1087.38,2148.92Zm-5.68-14.97-4.53,5.28-2.77-2.08a0.725,0.725,0,0,0-.87,1.16l3.32,2.49a0.73,0.73,0,0,0,.98-0.11l4.98-5.8A0.727,0.727,0,0,0,1081.7,2133.95Zm0,10.15-4.53,5.28-2.77-2.08a0.725,0.725,0,0,0-.87,1.16l3.32,2.49a0.7,0.7,0,0,0,.98-0.11l4.98-5.8A0.727,0.727,0,0,0,1081.7,2144.1Zm0,10.88-4.53,5.28-2.77-2.08a0.725,0.725,0,0,0-.87,1.16l3.32,2.49a0.73,0.73,0,0,0,.98-0.11l4.98-5.8A0.727,0.727,0,0,0,1081.7,2154.98Z" transform="translate(-1067.81 -2128.63)"/>
</svg>
