<svg xmlns="http://www.w3.org/2000/svg" width="41.844" height="41.82" viewBox="0 0 41.844 41.82">
  <defs>
    <style>
      .cls-1 {
        fill: #1858c3;
        fill-rule: evenodd;
      }
    </style>
  </defs>
  <path id="Forma_1" data-name="Forma 1" class="cls-1" d="M318.767,2146.07h-9.693v7.3h9.693v-7.3Zm-1.784,5.52h-6.134v-3.73h6.134v3.73Zm1.7,6.24h17.431v1.78H318.681v-1.78Zm23.387-34H313.75a4.143,4.143,0,0,0-4.1,4.1v12.18h-1.2a4.143,4.143,0,0,0-4.1,4.1v17.35a4.141,4.141,0,0,0,4.1,4.09h29.18a4.16,4.16,0,0,0,4.1-4.18v-12.1h0.359a4.162,4.162,0,0,0,4.1-4.19v-17.25A4.169,4.169,0,0,0,342.068,2123.83Zm-28.318,1.78h28.318a2.358,2.358,0,0,1,2.312,2.32v1.78H311.438v-1.78A2.357,2.357,0,0,1,313.75,2125.61Zm26.185,35.86a2.349,2.349,0,0,1-2.313,2.31H308.451a2.349,2.349,0,0,1-2.312-2.31V2144.2a2.356,2.356,0,0,1,2.312-2.31h29.18a2.355,2.355,0,0,1,2.312,2.31v17.27h-0.008Zm2.133-13.88h-0.359v-3.38a4.142,4.142,0,0,0-4.1-4.1H311.438v-8.63H344.38v13.8A2.356,2.356,0,0,1,342.068,2147.59Z" transform="translate(-304.344 -2123.84)"/>
</svg>
