<svg xmlns="http://www.w3.org/2000/svg" width="37" height="37" viewBox="0 0 65 65">
  <defs>
    <style>
      .cls-1 {
        fill: #fff;
        fill-rule: evenodd;
      }
    </style>
  </defs>
  <path id="Forma_1" data-name="Forma 1" class="cls-1" d="M65,28.384H11.656c-0.519-3.5-2.446-11.741-9.088-11.741a1.645,1.645,0,1,0,0,3.29,3.5,3.5,0,0,1,1.22.238c2.243,0.821,3.458,3.8,4.09,6.31a25.516,25.516,0,0,1,.643,3.64A27.817,27.817,0,0,0,17.6,50.577a9.018,9.018,0,0,0-1.716,5.289A9.216,9.216,0,0,0,34.072,57.9c0.885,0.083,1.779.13,2.685,0.13s1.8-.047,2.686-0.13a9.216,9.216,0,0,0,18.185-2.032,9.021,9.021,0,0,0-1.715-5.289A27.814,27.814,0,0,0,65,30.03V28.384ZM53.528,48.271A9.222,9.222,0,0,0,39.3,54.6c-0.836.084-1.685,0.133-2.545,0.133s-1.709-.049-2.545-0.133a9.222,9.222,0,0,0-14.224-6.333,24.562,24.562,0,0,1-8.1-16.6H61.624A24.56,24.56,0,0,1,53.528,48.271Zm0.782,7.595a5.885,5.885,0,0,1-11.557,1.521,5.722,5.722,0,0,1-.227-1.521c0-.041.011-0.076,0.012-0.116a5.727,5.727,0,0,1,.338-1.8,5.879,5.879,0,0,1,7.818-3.476,6.426,6.426,0,0,1,2.646,2.193A5.759,5.759,0,0,1,54.31,55.866Zm-23.317,0a5.719,5.719,0,0,1-.228,1.521,5.885,5.885,0,0,1-11.559-1.521,5.767,5.767,0,0,1,.969-3.194,5.884,5.884,0,0,1,10.467,1.283,5.734,5.734,0,0,1,.338,1.8C30.981,55.79,30.993,55.825,30.993,55.866ZM65,23.446A22.662,22.662,0,0,0,42.264.908H40.6V25.092H65V23.446ZM43.924,21.8V4.268A19.364,19.364,0,0,1,61.609,21.8H43.924Z"/>
</svg>
