<svg xmlns="http://www.w3.org/2000/svg" width="26" height="23" viewBox="0 0 26 23">
  <defs>
    <style>
      .cls-1 {
        fill: #db1b3c;
        ..fill-rule: evenodd;
      }
    </style>
  </defs>
  <path id="Forma_1_copy_14" data-name="Forma 1 copy 14" class="cls-1" d="M23.566,13.135h0.012l-8.136,8.22C14.629,22.177,13.815,23,13,23s-1.627-.823-2.441-1.646l-8.136-8.22H2.438A7.575,7.575,0,0,1,7.463-.021,7.427,7.427,0,0,1,13,2.458,7.426,7.426,0,0,1,18.54-.021,7.575,7.575,0,0,1,23.566,13.135ZM18.244,2.008c-1.687,0-4.2,1.706-5.255,2.83-1.051-1.124-3.568-2.83-5.255-2.83A5.664,5.664,0,0,0,1.988,7.586c0,1.638,1.727,4.111,2.885,5.132H4.863l6.251,6.067A3.322,3.322,0,0,0,12.989,20a3.322,3.322,0,0,0,1.875-1.215l6.251-6.067h-0.01C22.263,11.7,23.99,9.224,23.99,7.586A5.664,5.664,0,0,0,18.244,2.008Z"/>
</svg>
