<svg xmlns="http://www.w3.org/2000/svg" width="33" height="33" viewBox="0 0 33 33">
  <defs>
    <style>
      .cls-1 {
        opacity: 0.3;
      }

      .cls-2 {
        fill: #fff;
        fill-rule: evenodd;
      }
    </style>
  </defs>
  <circle id="Ellipse_17_copy" data-name="Ellipse 17 copy" class="cls-1" cx="16.5" cy="16.5" r="16.5"/>
  <path id="Rounded_Rectangle_7" data-name="Rounded Rectangle 7" class="cls-2" d="M9.426,9.848l4.539-3.479a0.617,0.617,0,0,1,.853.1,0.584,0.584,0,0,1-.1.833l-4.539,3.479a0.617,0.617,0,0,1-.853-0.1A0.584,0.584,0,0,1,9.426,9.848Zm4.83-3.17,4.854,3.05a0.58,0.58,0,0,1,.179.818,0.622,0.622,0,0,1-.843.175L13.591,7.67a0.58,0.58,0,0,1-.179-0.817A0.622,0.622,0,0,1,14.256,6.677ZM13.273,5.057l3.6,2.02-0.8.619-3.6-2.02Zm5.074,4.051,1.528,1.126A0.61,0.61,0,0,1,20,11.1l-3.086,3.965a0.651,0.651,0,0,1-.9.12L13.851,15c-0.281-.207-0.337-0.286-0.124-0.56l4.044-4.9C17.984,9.265,18.066,8.9,18.347,9.108ZM21.484,5a2.329,2.329,0,1,1-2.391,2.328A2.36,2.36,0,0,1,21.484,5ZM21.5,5.938a1.407,1.407,0,1,1-1.437,1.406A1.422,1.422,0,0,1,21.5,5.938Zm-8.312,8.094a6.987,6.987,0,1,1,0,13.969A6.987,6.987,0,1,1,13.188,14.031ZM24.91,15.91L23.691,24.3a0.609,0.609,0,0,1-1.211-.123L23.7,15.786A0.609,0.609,0,0,1,24.91,15.91Zm-0.393.493-8.6,1.364A0.606,0.606,0,0,1,15.2,17.3a0.6,0.6,0,0,1,.476-0.7l8.6-1.363a0.606,0.606,0,0,1,.716.462A0.6,0.6,0,0,1,24.517,16.4ZM13.189,14.946a6.063,6.063,0,1,1,0,12.122A6.063,6.063,0,1,1,13.189,14.946Z"/>
</svg>
