<svg xmlns="http://www.w3.org/2000/svg" width="33" height="33" viewBox="0 0 33 33">
  <defs>
    <style>
      .cls-1 {
        opacity: 0.3;
      }

      .cls-2 {
        fill: #fff;
        fill-rule: evenodd;
      }
    </style>
  </defs>
  <circle id="Ellipse_17_copy" data-name="Ellipse 17 copy" class="cls-1" cx="16.5" cy="16.5" r="16.5"/>
  <path id="Forma_1" data-name="Forma 1" class="cls-2" d="M26,15H8.522c-0.17-1.148-.8-3.847-2.978-3.847a0.539,0.539,0,1,0,0,1.078,1.148,1.148,0,0,1,.4.078,2.855,2.855,0,0,1,1.34,2.067,8.359,8.359,0,0,1,.211,1.193,9.114,9.114,0,0,0,2.975,6.7,2.954,2.954,0,0,0-.562,1.733,3.02,3.02,0,0,0,5.958.666c0.29,0.027.583,0.043,0.88,0.043s0.59-.015.88-0.043a3.02,3.02,0,0,0,5.958-.666,2.956,2.956,0,0,0-.562-1.733A9.113,9.113,0,0,0,26,15.542V15Zm-3.758,6.516a3.021,3.021,0,0,0-4.66,2.075c-0.274.027-.552,0.043-0.834,0.043s-0.56-.016-0.834-0.043a3.021,3.021,0,0,0-4.66-2.075A8.048,8.048,0,0,1,8.6,16.081H24.894A8.048,8.048,0,0,1,22.241,21.519ZM22.5,24.007a1.928,1.928,0,0,1-3.787.5,1.873,1.873,0,0,1-.074-0.5c0-.013,0-0.025,0-0.038a1.876,1.876,0,0,1,.111-0.588,1.942,1.942,0,0,1,3.428-.42A1.886,1.886,0,0,1,22.5,24.007Zm-7.64,0a1.874,1.874,0,0,1-.075.5,1.928,1.928,0,0,1-3.787-.5,1.889,1.889,0,0,1,.318-1.047,1.928,1.928,0,0,1,3.429.42,1.876,1.876,0,0,1,.111.588C14.854,23.982,14.858,23.994,14.858,24.007ZM26,13.385A7.425,7.425,0,0,0,18.551,6H18.007v7.924H26V13.385Zm-6.9-.539V7.1a6.345,6.345,0,0,1,5.794,5.745H19.094Z"/>
</svg>
