<svg xmlns="http://www.w3.org/2000/svg" width="33" height="33" viewBox="0 0 33 33">
  <defs>
    <style>
      .cls-1 {
        opacity: 0.3;
      }

      .cls-2 {
        fill: #fff;
        stroke: #fff;
        stroke-width: 0.2px;
        fill-rule: evenodd;
      }
    </style>
  </defs>
  <circle id="Ellipse_17_copy" data-name="Ellipse 17 copy" class="cls-1" cx="16.5" cy="16.5" r="16.5"/>
  <path id="Forma_1" data-name="Forma 1" class="cls-2" d="M8.139,20.545a0.436,0.436,0,0,0,.606-0.068,0.421,0.421,0,0,0-.069-0.6A11.794,11.794,0,0,1,7.683,19L4.494,15.86l3.289-3.243a11.756,11.756,0,0,1,12-2.777,0.434,0.434,0,0,0,.546-0.268,0.424,0.424,0,0,0-.272-0.539A12.622,12.622,0,0,0,7.173,12.015l-3.9,3.845,3.8,3.746A12.7,12.7,0,0,0,8.139,20.545Zm16.792-8.53a12.623,12.623,0,0,0-1.894-1.537,0.436,0.436,0,0,0-.6.116,0.422,0.422,0,0,0,.118.59,11.753,11.753,0,0,1,1.765,1.432l3.189,3.145L24.222,19A11.871,11.871,0,0,1,12,21.706a0.433,0.433,0,0,0-.551.257,0.424,0.424,0,0,0,.26.544,12.749,12.749,0,0,0,13.123-2.9l3.9-3.844ZM16.44,20.708a5,5,0,0,1-2.617-.735,0.435,0.435,0,0,0-.594.137,0.421,0.421,0,0,0,.138.585,5.864,5.864,0,0,0,3.072.864,5.786,5.786,0,0,0,5.82-5.739,5.657,5.657,0,0,0-.981-3.189,0.435,0.435,0,0,0-.6-0.117,0.422,0.422,0,0,0-.119.59A4.818,4.818,0,0,1,21.4,15.82,4.929,4.929,0,0,1,16.44,20.708Zm0-9.777a5,5,0,0,1,2.524.68,0.435,0.435,0,0,0,.591-0.149A0.422,0.422,0,0,0,19.4,10.88a5.878,5.878,0,0,0-2.964-.8,5.786,5.786,0,0,0-5.82,5.739,5.618,5.618,0,0,0,.592,2.525,0.434,0.434,0,0,0,.577.195,0.423,0.423,0,0,0,.2-0.569,4.787,4.787,0,0,1-.5-2.151A4.93,4.93,0,0,1,16.44,10.931ZM26.822,5.317a0.435,0.435,0,0,0-.61,0L6.166,25.084a0.421,0.421,0,0,0,0,.6,0.435,0.435,0,0,0,.61,0L26.822,5.918A0.42,0.42,0,0,0,26.822,5.317Z"/>
</svg>
