<svg xmlns="http://www.w3.org/2000/svg" width="33" height="40" viewBox="0 0 33 40">
  <defs>
    <style>
      .cls-1 {
        fill: #fff;
        fill-rule: evenodd;
      }
    </style>
  </defs>
  <path id="Rounded_Rectangle_7" data-name="Rounded Rectangle 7" class="cls-1" d="M315.775,59.446l-2.048,14.119a1.057,1.057,0,0,1-2.1-.214l1.923-13.264-7.583,1.2a11.793,11.793,0,0,1,2,6.552,12.489,12.489,0,1,1-12.485-12.156,12.891,12.891,0,0,1,1.458.09l5.788-7.017L296.8,45.03l-6.546,5.024a1.071,1.071,0,0,1-1.481-.175,1.017,1.017,0,0,1,.178-1.449l7.7-5.906,1.81,1.018c-0.008.021-.01,0.044-0.02,0.064l5.564,3.5a0.333,0.333,0,0,1,.445.036L307.1,49.1a1.062,1.062,0,0,1,.215,1.514l-5.333,6.861a12.555,12.555,0,0,1,2.5,1.963l10.263-1.63a1.052,1.052,0,0,1,1.243.8A1,1,0,0,1,315.775,59.446Zm-20.29-2.15a10.544,10.544,0,1,0,10.821,10.54A10.683,10.683,0,0,0,295.485,57.3Zm14.421-9.2a4.048,4.048,0,1,1,4.157-4.047A4.1,4.1,0,0,1,309.906,48.094Zm0-6.469a2.438,2.438,0,1,0,2.5,2.438A2.469,2.469,0,0,0,309.906,41.625Z" transform="translate(-283 -40)"/>
</svg>
