<svg xmlns="http://www.w3.org/2000/svg" width="33" height="33" viewBox="0 0 33 33">
  <defs>
    <style>
      .cls-1 {
        opacity: 0.3;
      }

      .cls-2 {
        fill: #fff;
        fill-rule: evenodd;
      }
    </style>
  </defs>
  <circle id="Ellipse_17_copy" data-name="Ellipse 17 copy" class="cls-1" cx="16.5" cy="16.5" r="16.5"/>
  <path id="Rounded_Rectangle_7_copy_3" data-name="Rounded Rectangle 7 copy 3" class="cls-2" d="M26,16l-1.378,8.979a0.638,0.638,0,0,1-.7.573,0.646,0.646,0,0,1-.573-0.707l1.166-8.29-4.776.782A7.5,7.5,0,1,1,13.5,14a7.579,7.579,0,0,1,.8.044l3.654-4.569L14.363,7.144,10.4,10.284a0.636,0.636,0,0,1-.9-0.109A0.648,0.648,0,0,1,9.606,9.27L14.27,5.578l1.092,0.633c-0.005.014,0,.029-0.007,0.043l3.385,2.2A0.189,0.189,0,0,1,19,8.465l1.609,1.224a0.678,0.678,0,0,1,.13.947l-3.248,4.309a0.655,0.655,0,0,1-.141.125,7.525,7.525,0,0,1,1.447,1.118l6.447-1.056a0.638,0.638,0,0,1,.753.5C26.031,15.826,26.111,15.857,26,16ZM13.5,15A6.5,6.5,0,1,0,20,21.5,6.5,6.5,0,0,0,13.5,15Zm8.8-5.937a2.531,2.531,0,1,1,2.516-2.531A2.524,2.524,0,0,1,22.3,9.063Zm0.031-4.031a1.516,1.516,0,1,0,1.516,1.516A1.516,1.516,0,0,0,22.328,5.031Z"/>
</svg>
