<svg xmlns="http://www.w3.org/2000/svg" width="61" height="74" viewBox="0 0 61 74">
  <defs>
    <style>
      .cls-1 {
        fill: #3dcbff;
        fill-rule: evenodd;
      }
    </style>
  </defs>
  <path class="cls-1" d="M60.562,35.974l-3.783,26.12a1.954,1.954,0,0,1-3.886-.4L56.446,37.16l-14.01,2.228a21.847,21.847,0,0,1,3.7,12.124C46.14,63.931,35.814,74,23.075,74S0.01,63.931.01,51.511,10.337,29.022,23.075,29.022a23.8,23.8,0,0,1,2.693.166L36.46,16.206,25.5,9.3,13.409,18.6a1.977,1.977,0,0,1-2.736-.324A1.882,1.882,0,0,1,11,15.6L25.221,4.67l3.345,1.883c-0.015.039-.019,0.081-0.036,0.119l10.28,6.475a0.613,0.613,0,0,1,.821.067l4.9,3.622a1.967,1.967,0,0,1,.4,2.8L35.076,32.332A23.18,23.18,0,0,1,39.7,35.964l18.963-3.015a1.943,1.943,0,0,1,2.3,1.487A1.852,1.852,0,0,1,60.562,35.974ZM23.106,33.325C12.4,33.325,3.72,41.6,3.72,51.814S12.4,70.3,23.106,70.3s19.386-8.277,19.386-18.489S33.813,33.325,23.106,33.325ZM49.72,14.973a7.585,7.585,0,0,1-7.679-7.487,7.681,7.681,0,0,1,15.358,0A7.585,7.585,0,0,1,49.72,14.973Zm0-11.967A4.565,4.565,0,0,0,45.1,7.515a4.62,4.62,0,0,0,9.238,0A4.565,4.565,0,0,0,49.72,3.006Z"/>
</svg>
