<svg xmlns="http://www.w3.org/2000/svg" width="42" height="30" viewBox="0 0 42 30">
  <defs>
    <style>
      .cls-1 {
        fill: #fff;
        fill-rule: evenodd;
      }
    </style>
  </defs>
  <path id="all" class="cls-1" d="M8.665,11.778V10.144H6.774V2.385L5.035,1.97l-0.2,8.173H2.112L1.9,0.44,0.063,0,0,10.3a1.371,1.371,0,0,0,1.281,1.477H4.839v3.693H6.774V11.778H8.665Zm6.791,15.416a3.936,3.936,0,0,1-1.4-.6,2.7,2.7,0,0,1-.9-1.1,4,4,0,0,1-.317-1.686,3.187,3.187,0,0,1,.468-1.823A3.358,3.358,0,0,1,14.5,20.9a4.733,4.733,0,0,1,1.6-.516,12.2,12.2,0,0,1,1.671-.12,10.086,10.086,0,0,1,2.205.189,6.559,6.559,0,0,1,1.169.361v6.261a14.681,14.681,0,0,1-1.621.224q-0.952.086-2.222,0.086A8.255,8.255,0,0,1,15.456,27.194Zm-1.2-16.151a7.9,7.9,0,0,0-1.754.516l0.3,1.961q0.434-.172,1.37-0.447a10.837,10.837,0,0,1,2.84-.275,4.645,4.645,0,0,1,2.155.43,3.283,3.283,0,0,1,1.27,1.135,4.03,4.03,0,0,1,.585,1.582,12.016,12.016,0,0,1,.134,1.806v1.1a2.539,2.539,0,0,0-.485-0.155q-0.351-.085-0.835-0.172t-1-.138q-0.518-.052-0.986-0.052a12.87,12.87,0,0,0-2.907.31,6.637,6.637,0,0,0-2.306.981,4.634,4.634,0,0,0-1.5,1.7,5.322,5.322,0,0,0-.535,2.477,6.085,6.085,0,0,0,.485,2.563,4.6,4.6,0,0,0,1.337,1.72,5.507,5.507,0,0,0,2,.98,9.706,9.706,0,0,0,2.523.31q1.069,0,2.088-.086t1.855-.224q0.835-.137,1.47-0.258a9.509,9.509,0,0,0,.969-0.224V17.373a9.765,9.765,0,0,0-.334-2.614,5.477,5.477,0,0,0-1.069-2.081A4.969,4.969,0,0,0,20,11.3a7.464,7.464,0,0,0-2.89-.5A14.615,14.615,0,0,0,14.253,11.043Zm19.3,16.409a9.623,9.623,0,0,1-1.153-.241,1.658,1.658,0,0,1-1.236-1.221,4.73,4.73,0,0,1-.15-1.324V2.305l-2.172.413V24.734a6.708,6.708,0,0,0,.284,2.116,3.365,3.365,0,0,0,.835,1.376,3.4,3.4,0,0,0,1.37.791,7.169,7.169,0,0,0,1.921.292Zm8.52,0a9.628,9.628,0,0,1-1.153-.241,1.658,1.658,0,0,1-1.236-1.221,4.726,4.726,0,0,1-.15-1.324V2.305l-2.172.413V24.734a6.7,6.7,0,0,0,.284,2.116,3.366,3.366,0,0,0,.835,1.376,3.4,3.4,0,0,0,1.37.791,7.17,7.17,0,0,0,1.921.292Z"/>
</svg>
